<svg id="visual" viewBox="0 0 900 600" width="900" height="600" xmlns="http://www.w3.org/2000/svg" xmlns:xlink="http://www.w3.org/1999/xlink" version="1.1"><rect x="0" y="0" width="900" height="600" fill="#ffffff"></rect><path d="M0 378L15 378.2C30 378.3 60 378.7 90 379C120 379.3 150 379.7 180 380.7C210 381.7 240 383.3 270 383.7C300 384 330 383 360 380.8C390 378.7 420 375.3 450 373.5C480 371.7 510 371.3 540 371.2C570 371 600 371 630 371.2C660 371.3 690 371.7 720 374.3C750 377 780 382 810 383.3C840 384.7 870 382.3 885 381.2L900 380L900 601L885 601C870 601 840 601 810 601C780 601 750 601 720 601C690 601 660 601 630 601C600 601 570 601 540 601C510 601 480 601 450 601C420 601 390 601 360 601C330 601 300 601 270 601C240 601 210 601 180 601C150 601 120 601 90 601C60 601 30 601 15 601L0 601Z" fill="#1d5030"></path><path d="M0 436L15 435.3C30 434.7 60 433.3 90 432.5C120 431.7 150 431.3 180 432.7C210 434 240 437 270 440.3C300 443.7 330 447.3 360 448.2C390 449 420 447 450 443.7C480 440.3 510 435.7 540 433.5C570 431.3 600 431.7 630 434.7C660 437.7 690 443.3 720 445.7C750 448 780 447 810 445.3C840 443.7 870 441.3 885 440.2L900 439L900 601L885 601C870 601 840 601 810 601C780 601 750 601 720 601C690 601 660 601 630 601C600 601 570 601 540 601C510 601 480 601 450 601C420 601 390 601 360 601C330 601 300 601 270 601C240 601 210 601 180 601C150 601 120 601 90 601C60 601 30 601 15 601L0 601Z" fill="#ffb81c"></path><path d="M0 504L15 505.5C30 507 60 510 90 510.5C120 511 150 509 180 509C210 509 240 511 270 512.3C300 513.7 330 514.3 360 514.8C390 515.3 420 515.7 450 516.2C480 516.7 510 517.3 540 514.8C570 512.3 600 506.7 630 504C660 501.3 690 501.7 720 503.7C750 505.7 780 509.3 810 511.2C840 513 870 513 885 513L900 513L900 601L885 601C870 601 840 601 810 601C780 601 750 601 720 601C690 601 660 601 630 601C600 601 570 601 540 601C510 601 480 601 450 601C420 601 390 601 360 601C330 601 300 601 270 601C240 601 210 601 180 601C150 601 120 601 90 601C60 601 30 601 15 601L0 601Z" fill="#1d5030"></path></svg>