<svg id="visual" viewBox="0 0 900 600" width="900" height="600" xmlns="http://www.w3.org/2000/svg" xmlns:xlink="http://www.w3.org/1999/xlink" version="1.1"><rect x="0" y="0" width="900" height="600" fill="#ffffff"></rect><path d="M0 433L25 428C50 423 100 413 150 408.2C200 403.3 250 403.7 300 411C350 418.3 400 432.7 450 432.5C500 432.3 550 417.7 600 417.2C650 416.7 700 430.3 750 436.2C800 442 850 440 875 439L900 438L900 601L875 601C850 601 800 601 750 601C700 601 650 601 600 601C550 601 500 601 450 601C400 601 350 601 300 601C250 601 200 601 150 601C100 601 50 601 25 601L0 601Z" fill="#ffb81c"></path><path d="M0 424L25 424.8C50 425.7 100 427.3 150 442C200 456.7 250 484.3 300 491C350 497.7 400 483.3 450 478.5C500 473.7 550 478.3 600 477.7C650 477 700 471 750 464.2C800 457.3 850 449.7 875 445.8L900 442L900 601L875 601C850 601 800 601 750 601C700 601 650 601 600 601C550 601 500 601 450 601C400 601 350 601 300 601C250 601 200 601 150 601C100 601 50 601 25 601L0 601Z" fill="#1d5030"></path><path d="M0 555L25 546.7C50 538.3 100 521.7 150 518.3C200 515 250 525 300 530.2C350 535.3 400 535.7 450 532C500 528.3 550 520.7 600 517C650 513.3 700 513.7 750 516.5C800 519.3 850 524.7 875 527.3L900 530L900 601L875 601C850 601 800 601 750 601C700 601 650 601 600 601C550 601 500 601 450 601C400 601 350 601 300 601C250 601 200 601 150 601C100 601 50 601 25 601L0 601Z" fill="#ffb81c"></path></svg>