<?xml version="1.0" encoding="UTF-8" standalone="no"?>
<svg
   xmlns:dc="http://purl.org/dc/elements/1.1/"
   xmlns:cc="http://creativecommons.org/ns#"
   xmlns:rdf="http://www.w3.org/1999/02/22-rdf-syntax-ns#"
   xmlns:svg="http://www.w3.org/2000/svg"
   xmlns="http://www.w3.org/2000/svg"
   xmlns:sodipodi="http://sodipodi.sourceforge.net/DTD/sodipodi-0.dtd"
   xmlns:inkscape="http://www.inkscape.org/namespaces/inkscape"
   version="1.1"
   id="svg2"
   xml:space="preserve"
   width="185.944"
   height="185.94267"
   viewBox="0 0 185.944 185.94267"
   sodipodi:docname="logomcdonaldspastillaverde-token.ai"><metadata
     id="metadata8"><rdf:RDF><cc:Work
         rdf:about=""><dc:format>image/svg+xml</dc:format><dc:type
           rdf:resource="http://purl.org/dc/dcmitype/StillImage" /></cc:Work></rdf:RDF></metadata><defs
     id="defs6"><clipPath
       clipPathUnits="userSpaceOnUse"
       id="clipPath18"><path
         d="M 0,139.457 H 139.458 V 0 H 0 Z"
         id="path16" /></clipPath></defs><sodipodi:namedview
     pagecolor="#ffffff"
     bordercolor="#666666"
     borderopacity="1"
     objecttolerance="10"
     gridtolerance="10"
     guidetolerance="10"
     inkscape:pageopacity="0"
     inkscape:pageshadow="2"
     inkscape:window-width="640"
     inkscape:window-height="480"
     id="namedview4" /><g
     id="g10"
     inkscape:groupmode="layer"
     inkscape:label="logomcdonaldspastillaverde-token"
     transform="matrix(1.3333333,0,0,-1.3333333,0,185.94267)"><g
       id="g12"><g
         id="g14"
         clip-path="url(#clipPath18)"><g
           id="g20"
           transform="translate(12.0804)"><path
             d="m 0,0 c 0,0 -12.08,0 -12.08,12.08 v 115.297 c 0,0 0,12.08 12.08,12.08 h 115.297 c 0,0 12.081,0 12.081,-12.08 V 12.08 c 0,0 0,-12.08 -12.081,-12.08 z"
             style="fill:#1d5030;fill-opacity:1;fill-rule:nonzero;stroke:none"
             id="path22" /></g><g
           id="g24"
           transform="translate(89.9886,110.7982)"><path
             d="M 0,0 C -8.182,0 -15.478,-10.901 -20.253,-27.946 -25.024,-10.901 -32.324,0 -40.505,0 -54.885,0 -66.546,-36.27 -66.546,-81.008 h 11.575 c 0,41.543 6.478,75.221 14.466,75.221 7.989,0 14.466,-31.089 14.466,-69.436 h 11.573 c 0,38.347 6.476,69.436 14.466,69.436 7.989,0 14.468,-33.678 14.468,-75.221 h 11.57 C 26.038,-36.27 14.38,0 0,0"
             style="fill:#fbb900;fill-opacity:1;fill-rule:nonzero;stroke:none"
             id="path26" /></g></g></g></g></svg>
