<?xml version="1.0" encoding="UTF-8" standalone="no"?>
<svg
   xmlns:dc="http://purl.org/dc/elements/1.1/"
   xmlns:cc="http://creativecommons.org/ns#"
   xmlns:rdf="http://www.w3.org/1999/02/22-rdf-syntax-ns#"
   xmlns:svg="http://www.w3.org/2000/svg"
   xmlns="http://www.w3.org/2000/svg"
   xmlns:sodipodi="http://sodipodi.sourceforge.net/DTD/sodipodi-0.dtd"
   xmlns:inkscape="http://www.inkscape.org/namespaces/inkscape"
   version="1.1"
   id="svg2"
   xml:space="preserve"
   width="319.94"
   height="405.09067"
   viewBox="0 0 319.94 405.09067"
   sodipodi:docname="pictopatatasfritas.ai"><metadata
     id="metadata8"><rdf:RDF><cc:Work
         rdf:about=""><dc:format>image/svg+xml</dc:format><dc:type
           rdf:resource="http://purl.org/dc/dcmitype/StillImage" /></cc:Work></rdf:RDF></metadata><defs
     id="defs6"><clipPath
       clipPathUnits="userSpaceOnUse"
       id="clipPath18"><path
         d="M 0,303.818 H 239.955 V 0 H 0 Z"
         id="path16" /></clipPath></defs><sodipodi:namedview
     pagecolor="#ffffff"
     bordercolor="#666666"
     borderopacity="1"
     objecttolerance="10"
     gridtolerance="10"
     guidetolerance="10"
     inkscape:pageopacity="0"
     inkscape:pageshadow="2"
     inkscape:window-width="640"
     inkscape:window-height="480"
     id="namedview4" /><g
     id="g10"
     inkscape:groupmode="layer"
     inkscape:label="pictopatatasfritas"
     transform="matrix(1.3333333,0,0,-1.3333333,0,405.09067)"><g
       id="g12"><g
         id="g14"
         clip-path="url(#clipPath18)"><g
           id="g20"
           transform="translate(94.5138,303.8181)"><path
             d="m 0,0 h -0.001 c -9.138,0 -18.981,-8.648 -22.002,-11.98 -2.04,-2.25 -4.7,-5.765 -4.255,-10.298 0.433,-4.403 0.809,-8.315 1.136,-11.839 -4.22,-0.996 -8.586,-3.057 -12.31,-5.517 -0.029,0.127 -0.058,0.256 -0.087,0.384 -1.296,5.762 -6.894,7.719 -12.038,9.101 -2.617,0.702 -7.821,1.881 -13.28,1.881 -2.639,0 -5.047,-0.284 -7.158,-0.846 -4.728,-1.259 -7.584,-6.065 -6.43,-10.82 0.614,-2.532 1.239,-5.066 1.864,-7.599 0.002,-0.005 0.003,-0.011 0.005,-0.016 -10.344,-5.088 -18.147,-19.067 -18.229,-19.221 -0.77,-1.449 -2.574,-4.843 -1.267,-8.839 2.932,-8.956 5.958,-16.191 9.162,-23.85 0.202,-0.485 0.407,-0.972 0.611,-1.463 l -3.125,-3.539 c -1.752,-1.983 -2.541,-4.636 -2.16,-7.254 2.614,-17.958 16.617,-110.82 35.606,-175.529 0.504,-1.719 1.51,-3.249 2.889,-4.392 l 12.183,-10.109 c 1.64,-1.36 3.68,-2.073 5.748,-2.073 1.035,0 2.077,0.179 3.08,0.544 15.893,5.791 28.152,9.587 52.768,9.587 24.617,0 36.876,-3.796 52.769,-9.587 1.003,-0.365 2.045,-0.544 3.08,-0.544 2.068,0 4.108,0.712 5.748,2.073 l 12.183,10.109 c 1.379,1.143 2.385,2.673 2.889,4.392 18.987,64.7 32.992,157.569 35.607,175.529 0.362,2.492 -0.336,5.022 -1.925,6.976 l -3.215,3.952 c 0.272,0.832 0.541,1.66 0.811,2.486 5.279,16.196 10.266,31.494 14.53,49.126 1.121,4.638 -1.571,9.345 -6.138,10.729 -2.962,0.897 -6.389,1.352 -10.187,1.352 -5.714,0 -19.26,-1.007 -21.621,-10.327 -0.078,-0.308 -0.155,-0.605 -0.229,-0.895 -1.524,0.464 -3.142,0.854 -4.851,1.169 0.275,1.706 0.566,3.473 0.875,5.311 0.802,4.787 -2.335,9.348 -7.092,10.31 -2.587,0.524 -5.277,0.789 -7.996,0.789 -4.243,0 -8.102,-0.627 -11.436,-1.816 -0.214,2.922 -0.454,6 -0.727,9.303 -0.39,4.699 -4.326,8.256 -8.96,8.257 -0.241,0 -0.483,-0.01 -0.726,-0.029 -11.877,-0.948 -25.224,-6.812 -28.272,-17.776 -0.277,-0.994 -0.38,-2.028 -0.306,-3.056 l 0.105,-1.458 c 0.004,-0.054 0.008,-0.108 0.012,-0.162 -0.693,-0.172 -1.376,-0.36 -2.045,-0.562 0.295,2.723 0.617,5.588 0.967,8.596 0.614,5.287 -2.712,10.193 -10.168,15 -2.479,1.598 -8.985,5.413 -15.836,6.326 -0.249,0.033 -0.499,0.056 -0.748,0.068 C 9.354,-4.091 6.355,-0.901 2.431,-0.208 1.646,-0.07 0.829,0 0,0"
             style="fill:#ffffff;fill-opacity:1;fill-rule:nonzero;stroke:none"
             id="path22" /></g><g
           id="g24"
           transform="translate(61.3747,9.0003)"><path
             d="M 0,0 C 17.344,6.319 30.308,10.13 55.85,10.13 81.392,10.13 94.355,6.319 111.699,0 l 12.184,10.108 c 18.744,63.873 32.554,155.19 35.336,174.291 h -24.916 c -4.483,-11.87 -25.49,-58.562 -78.453,-58.562 -52.96,0 -73.969,46.692 -78.453,58.562 h -24.916 c 2.781,-19.102 16.595,-110.425 35.336,-174.291 z"
             style="fill:#dc001c;fill-opacity:1;fill-rule:nonzero;stroke:none"
             id="path26" /></g><g
           id="g28"
           transform="translate(20.7028,201.1531)"><path
             d="m 0,0 h 20.009 c 1.35,0 2.552,-0.863 2.98,-2.145 1.937,-5.774 20.442,-56.417 73.26,-56.417 52.821,0 71.324,50.643 73.261,56.417 0.427,1.282 1.629,2.145 2.979,2.145 h 21.095 c 6.146,18.965 11.875,35.79 16.666,55.605 -7.398,2.242 -19.761,0.246 -20.475,-2.572 -1.22,-4.819 -1.974,-7.307 -3.284,-12.089 -3.353,3.73 -9.485,5.641 -16.241,6.285 -1.855,-16.945 -3.701,-23.166 -8.136,-40.406 0.874,21.432 2.137,33.318 5.857,55.495 -7.634,1.544 -17.573,0.283 -20.638,-5.234 -2.016,-12.662 -3.096,-19.681 -3.852,-30.696 -0.755,19.978 -1.134,31.534 -2.855,52.283 -9.672,-0.772 -18.657,-5.242 -20.317,-11.214 0.196,-2.721 0.54,-7.393 0.706,-10.099 -6.66,0.148 -13.859,-2.722 -16.468,-4.812 -2.965,-14.823 -3.042,-23.629 -7.134,-38.793 0,0 -1.654,11.707 4.018,60.511 0.34,2.93 -10.533,10.337 -18.253,11.366 C 81.444,71.423 79.922,57.237 78.589,43.057 77.828,59.789 76.534,76.609 74.678,93.593 68.805,94.629 56.226,84.16 56.51,81.267 59.801,47.778 59.861,42.474 60.043,20.057 57.048,40.402 55.802,47.906 53.064,60.161 45.354,59.586 34.353,51.363 34.92,48.513 37.646,34.802 38.179,28.801 39.067,10.858 35.212,32.57 32.456,39.467 27.512,61.439 27.211,62.775 13.659,66.857 6.132,64.854 10.305,47.66 14.961,30.429 16.785,13.486 12.501,24.621 8.521,35.993 4.903,47.7 -2.587,45.566 -12.113,31.158 -11.687,29.855 -8.073,18.816 -4.336,10.557 0,0"
             style="fill:#ffb81a;fill-opacity:1;fill-rule:nonzero;stroke:none"
             id="path30" /></g><g
           id="g32"
           transform="translate(134.8757,115.7083)"><path
             d="M 0,0 C -7.183,0 -13.589,-9.57 -17.781,-24.534 -21.97,-9.57 -28.378,0 -35.561,0 -48.185,0 -58.422,-31.842 -58.422,-71.118 h 10.162 c 0,36.471 5.687,66.038 12.699,66.038 7.015,0 12.701,-27.294 12.701,-60.959 h 10.16 c 0,33.665 5.685,60.959 12.7,60.959 7.014,0 12.701,-29.567 12.701,-66.038 H 22.859 C 22.859,-31.842 12.625,0 0,0"
             style="fill:#ffb81a;fill-opacity:1;fill-rule:nonzero;stroke:none"
             id="path34" /></g></g></g></g></svg>
