<?xml version="1.0" encoding="UTF-8" standalone="no"?>
<svg
   xmlns:dc="http://purl.org/dc/elements/1.1/"
   xmlns:cc="http://creativecommons.org/ns#"
   xmlns:rdf="http://www.w3.org/1999/02/22-rdf-syntax-ns#"
   xmlns:svg="http://www.w3.org/2000/svg"
   xmlns="http://www.w3.org/2000/svg"
   xmlns:sodipodi="http://sodipodi.sourceforge.net/DTD/sodipodi-0.dtd"
   xmlns:inkscape="http://www.inkscape.org/namespaces/inkscape"
   version="1.1"
   id="svg2"
   xml:space="preserve"
   width="458.82401"
   height="314.70001"
   viewBox="0 0 458.82401 314.70001"
   sodipodi:docname="pictocuartolibradequeso.ai"><metadata
     id="metadata8"><rdf:RDF><cc:Work
         rdf:about=""><dc:format>image/svg+xml</dc:format><dc:type
           rdf:resource="http://purl.org/dc/dcmitype/StillImage" /></cc:Work></rdf:RDF></metadata><defs
     id="defs6"><clipPath
       clipPathUnits="userSpaceOnUse"
       id="clipPath18"><path
         d="M 0,236.025 H 344.118 V 0 H 0 Z"
         id="path16" /></clipPath></defs><sodipodi:namedview
     pagecolor="#ffffff"
     bordercolor="#666666"
     borderopacity="1"
     objecttolerance="10"
     gridtolerance="10"
     guidetolerance="10"
     inkscape:pageopacity="0"
     inkscape:pageshadow="2"
     inkscape:window-width="640"
     inkscape:window-height="480"
     id="namedview4" /><g
     id="g10"
     inkscape:groupmode="layer"
     inkscape:label="pictocuartolibradequeso"
     transform="matrix(1.3333333,0,0,-1.3333333,0,314.7)"><g
       id="g12"><g
         id="g14"
         clip-path="url(#clipPath18)"><g
           id="g20"
           transform="translate(176.4805,236.0246)"><path
             d="m 0,0 c -0.7,0 -1.403,-0.002 -2.109,-0.006 -47.57,-0.28 -83.772,-9.598 -113.929,-29.326 -22.104,-14.459 -32.319,-31.002 -36.997,-42.335 -4.182,-10.131 -5.693,-20.273 -4.37,-28.086 -0.784,0.107 -1.549,0.243 -2.291,0.405 -0.637,0.14 -1.282,0.208 -1.923,0.208 -1.971,0 -3.907,-0.648 -5.496,-1.873 -0.903,-0.696 -8.829,-7.079 -9.352,-16.836 -0.183,-3.407 1.576,-6.624 4.542,-8.308 0.508,-0.288 1.568,-0.831 3.198,-1.386 -0.229,-0.648 -0.425,-1.321 -0.587,-2.017 -2.357,-10.114 -2.082,-19.204 0.82,-27.018 0.848,-2.283 2.612,-7.033 8.305,-9.364 2.038,-0.834 4.464,-1.647 7.252,-2.428 0.444,-5.578 3.419,-33.254 19.2,-43.654 13.882,-9.149 47.511,-17.523 85.79,-21.377 6.763,-1.484 24.626,-1.997 26.117,-1.997 0.211,0 0.427,0.002 0.648,0.008 8.877,-0.404 18.896,-0.634 27.575,-0.634 62.468,0 102.144,7.226 124.862,22.743 6.702,4.578 11.543,13.579 14.389,26.753 0.568,2.632 2.192,11.578 2.129,17.413 3.445,1.086 6.114,2.062 7.976,2.794 4.184,1.643 7.391,5.075 8.798,9.417 1.4,4.318 4.148,17.923 0.1,28.871 -0.219,0.595 -0.475,1.172 -0.763,1.726 1.055,0.834 1.943,1.893 2.595,3.13 1.551,2.938 1.542,6.546 -0.008,9.483 l -4.014,7.814 c -0.053,0.102 -0.107,0.204 -0.164,0.304 -1.818,3.228 -5.161,5.17 -8.961,5.212 1.772,9.853 -0.11,21.533 -5.478,33.108 -4.995,10.771 -15.247,26.329 -35.722,39.284 C 96.768,-18.25 80.097,-11.275 61.167,-6.647 42.872,-2.174 22.864,0 0,0"
             style="fill:#ffffff;fill-opacity:1;fill-rule:nonzero;stroke:none"
             id="path22" /></g><g
           id="g24"
           transform="translate(315.1739,68.051)"><path
             d="m 0,0 c -20.851,-6.368 -40.858,-6.725 -47.637,-9.729 -14.247,-6.318 -31.535,-9.059 -37.86,-9.967 -22.612,-3.25 -42.966,-3.933 -53.12,-11.685 -6.092,-4.65 -8.497,-8.82 -14.589,-20.047 -1.489,-2.744 -4.433,-5.57 -6.733,-6.975 8.395,-0.39 18.437,-0.648 27.638,-0.648 73.087,0 104.059,10.433 119.786,21.176 C -0.939,-29.969 0.608,0.186 0,0 m -214.526,-21.596 c -6.521,4.492 -15.232,6.461 -25.215,8.216 -15.974,2.808 -21.587,10.69 -25.041,11.014 -8.628,0.808 -17.918,3.239 -17.918,3.239 0,0 1.891,-28.623 15.222,-37.409 10.141,-6.684 38.876,-15.682 82.346,-19.998 -4.633,2.501 -19.691,28.253 -29.394,34.938 m -57.262,89.969 c 8.743,2.429 12.83,2.754 18.704,2.031 6.947,-0.855 12.825,-1.604 17.421,-0.748 4.952,0.921 12.291,5.345 28.827,3.983 11.3,-0.931 14.507,-2.633 20.309,-1.934 6.719,0.81 14.285,6.149 24.183,5.435 10.47,-0.756 9.744,-5.378 30.032,-2.352 11.236,1.675 24.03,-1.743 28.644,-1.177 4.614,0.567 19.477,2.566 30.486,0.865 11.009,-1.701 15.677,-3.696 21.992,-3.858 6.314,-0.162 14.275,0.943 25.285,-1.163 10.877,-2.08 20.936,-6.145 30.207,-5.414 l 0.015,0.02 c 6.796,16.746 -3.757,48.13 -35.69,68.335 -29.536,18.688 -65.023,26.833 -109.376,26.572 -44.353,-0.261 -79.806,-8.724 -109.056,-27.858 -36.799,-24.071 -40.73,-56.136 -36.248,-65.277 0.905,-1.844 8.623,0.972 14.265,2.54 m 131.213,24.842 c -0.459,0.523 -0.106,1.342 0.591,1.366 3.742,0.127 12.35,-0.116 10.074,-5.276 -2.186,-4.951 -8.206,1.112 -10.665,3.91 m -120.424,4.01 c 4.223,3.384 6.768,-4.774 7.658,-8.392 0.167,-0.675 -0.526,-1.239 -1.154,-0.938 -3.379,1.613 -10.904,5.804 -6.504,9.33 m 35.272,1.664 c -1.272,-5.261 -8.273,-0.362 -11.189,1.955 -0.544,0.433 -0.341,1.302 0.339,1.449 3.661,0.79 12.176,2.078 10.85,-3.404 m 4.858,30.764 c 5.311,-1.029 0.742,-8.251 -1.439,-11.27 -0.407,-0.565 -1.285,-0.402 -1.462,0.272 -0.957,3.621 -2.634,12.072 2.901,10.998 m 25.874,-35.218 c 0.688,0.1 1.182,-0.643 0.823,-1.24 -1.932,-3.208 -6.828,-10.296 -9.912,-5.574 -2.959,4.531 5.404,6.277 9.089,6.814 m -1.386,28.142 c 0.259,0.646 1.15,0.7 1.485,0.09 1.803,-3.283 5.472,-11.078 -0.158,-11.375 -5.403,-0.284 -2.713,7.828 -1.327,11.285 m 24.644,14.537 c 2.625,2.671 9.033,8.427 10.936,3.117 1.825,-5.094 -6.715,-4.848 -10.424,-4.514 -0.692,0.062 -1,0.901 -0.512,1.397 m 6.289,-40.459 c -3.614,0.98 -11.769,3.75 -8.074,8.01 3.545,4.088 7.515,-3.48 9.041,-6.878 0.285,-0.636 -0.295,-1.314 -0.967,-1.132 m 21.224,17.498 c 1.389,3.479 5.077,11.264 8.882,7.103 3.652,-3.994 -4.319,-7.068 -7.869,-8.193 -0.664,-0.21 -1.271,0.444 -1.013,1.09 m 42.603,-6.928 c 0.67,0.191 1.258,-0.48 0.98,-1.12 -1.49,-3.436 -5.404,-11.11 -9.086,-6.839 -3.533,4.099 4.525,6.938 8.106,7.959 m -6.504,34.007 c 5.228,-1.396 0.167,-8.282 -2.218,-11.143 -0.445,-0.534 -1.309,-0.311 -1.44,0.373 -0.702,3.68 -1.788,12.226 3.658,10.77 m 24.964,-15.92 c 3.507,1.314 11.744,3.829 11.23,-1.789 -0.493,-5.389 -8.132,-1.563 -11.354,0.306 -0.602,0.349 -0.528,1.238 0.124,1.483 m 12.856,-24.987 c 2.943,-2.317 9.365,-8.058 4.298,-10.532 -4.862,-2.374 -5.555,6.144 -5.63,9.868 -0.013,0.696 0.785,1.094 1.332,0.664 m 28.881,12.415 c 4.398,3.153 6.502,-5.13 7.197,-8.79 0.13,-0.684 -0.591,-1.209 -1.203,-0.876 -3.287,1.793 -10.577,6.381 -5.994,9.666 M -28.57,84.156 c 3.164,2.001 10.716,6.142 11.358,0.538 0.614,-5.377 -7.643,-3.188 -11.178,-2.016 -0.661,0.219 -0.769,1.106 -0.18,1.478"
             style="fill:#e9a55d;fill-opacity:1;fill-rule:nonzero;stroke:none"
             id="path26" /></g><g
           id="g28"
           transform="translate(91.2139,123.1658)"><path
             d="m 0,0 c 5.513,-1.522 9.741,-2.11 11.949,-1.027 1.331,0.653 2.052,2.577 0.282,3.681 -1.032,0.643 -2.973,1.053 -5.452,4.145 -1.18,1.472 -2.926,6.432 -8.937,5.041 -2.7,-0.625 -8.185,-4.476 -15.223,-3.476 -4.931,0.7 -14.29,3.241 -18.236,0.323 -1.844,-1.363 -0.816,-3.995 0.08,-4.891 1.683,-1.684 8.115,-1.605 12.452,-1.337 C -13.573,3.047 -7.161,1.978 0,0 M 111.694,0.286 C 95.187,0.758 83.23,-3.132 77.32,-5.673 c -0.806,-0.347 -0.493,-1.553 0.382,-1.489 20.729,1.518 35.012,-1.991 41.969,-8.073 3.604,-3.151 6.775,-7.655 9.401,-14.107 0.883,-2.171 3.363,-3.146 5.765,-2.183 5.915,2.369 15.886,8.123 23.226,15.821 7.645,8.016 18.175,7.764 26.337,5.723 6.437,-1.61 18.745,-4.786 28.442,-4.535 5.286,0.137 5.962,2.363 0.027,3.293 C 182,-6.386 179.943,2.661 165.447,2.661 c -14.733,0 -18.582,-6.491 -29.382,-6.455 -6.894,0.022 -16.596,3.857 -24.371,4.08 M 74.77,-62.256 c 12.405,-0.65 25.242,3.701 44.548,2.911 16.885,-0.692 46.634,-1.504 46.741,-3.473 0.12,-2.209 -39.792,-7.473 -52.249,-9.141 -18.069,-2.421 -30.915,-5.689 -40.154,-17.924 -6.53,-8.648 -11.002,-22.941 -21.609,-22.561 -14.874,0.533 -26.464,44.596 -57.166,47.337 -8.591,0.768 -17.668,4.345 -21.791,6.145 -0.554,0.242 -0.402,1.062 0.202,1.079 4.231,0.115 13.16,0.577 21.1,2.41 9.388,2.167 18.703,3.574 29.662,3.574 26.528,0 29.624,-9.253 50.716,-10.357"
             style="fill:#ffb81a;fill-opacity:1;fill-rule:nonzero;stroke:none"
             id="path30" /></g><g
           id="g32"
           transform="translate(141.1265,126.7209)"><path
             d="m 0,0 c 4.888,3.854 8.789,6.423 14.349,7.858 4.075,1.053 2.908,3.503 1.204,4.246 -2.969,1.294 -8.786,2.26 -19.699,-2.795 -13.135,-6.084 -17.133,-1.205 -21.064,-0.41 -7.174,1.449 -12.545,0.027 -12.545,-2.083 0,-3.448 5.785,-2.138 9.193,-7.008 3.232,-4.619 8.77,-6.463 12.851,-6.544 C -9.943,-6.85 -4.924,-3.883 0,0 M 90.66,10.665 C 101.867,10.52 109.051,9.508 112.624,7.912 115.055,6.825 116.043,4.651 110.86,4.33 96.975,3.471 92.303,-1.74 85.45,-1.523 78.864,-1.316 74.001,1.708 68.215,2.165 65.172,2.405 61.348,2.197 58.356,2.085 56.353,2.01 56.045,3.941 57.714,5.052 c 4.784,3.182 14.429,5.853 32.946,5.613"
             style="fill:#dc001c;fill-opacity:1;fill-rule:nonzero;stroke:none"
             id="path34" /></g><g
           id="g36"
           transform="translate(288.6729,121.4553)"><path
             d="m 0,0 c 15.711,-4.812 27.468,-6.415 45.72,-4.827 0.678,0.058 0.914,0.944 0.588,1.523 l -4.049,7.88 C 41.94,5.142 41.275,5.278 40.618,5.173 19.215,1.771 13.171,8.25 -1.114,10.076 c -7.618,0.973 -17.179,1.323 -22.73,0.985 -1.604,-0.098 -1.284,-1.755 -0.338,-2.026 C -15.033,6.408 -10.903,3.339 0,0 m -154.673,-7.631 c 0.877,0.085 1.664,-1.654 -0.12,-2.473 -23.248,-10.666 -45.753,-1.501 -56.439,-1.73 -8.101,-0.173 -16.664,-2.75 -20.103,-3.509 -0.826,-0.182 -1.677,-0.132 -2.473,0.141 l -16.051,5.059 c -1.026,0.354 -1.057,1.781 -0.059,2.205 11.743,4.989 28.072,6.263 38.146,6.038 12.721,-0.285 23.752,-6.908 34.576,-2.66 0.965,0.379 2.04,0.316 3.003,-0.068 3.218,-1.28 10.928,-3.836 19.52,-3.003"
             style="fill:#66813b;fill-opacity:1;fill-rule:nonzero;stroke:none"
             id="path38" /></g><g
           id="g40"
           transform="translate(44.3755,130.2873)"><path
             d="m 0,0 c -4.804,-1.116 -17.039,-5.13 -29.514,-2.403 0,0 -5.544,-4.275 -5.861,-10.191 0,0 13.039,-7.527 40.644,6.644 0.405,0.209 0.521,0.796 0.19,1.123 L 1.491,-0.443 C 1.085,-0.042 0.539,0.125 0,0 m 96.163,-12.5 c -0.562,0.411 -0.58,1.255 -0.036,1.687 8.956,7.125 20.643,12.265 26.607,14.415 12.538,4.517 21.538,4.65 28.276,3.481 0.561,-0.098 0.816,-0.713 0.371,-1.07 -0.888,-0.713 -3.924,-1.747 -7.491,-6.73 -0.377,-0.527 -0.87,-0.957 -1.528,-1.005 -19.88,-1.444 -34.371,-14.558 -34.549,-14.594 -5.608,-1.131 -9.331,2.123 -11.65,3.816"
             style="fill:#ddbb8b;fill-opacity:1;fill-rule:nonzero;stroke:none"
             id="path42" /></g><g
           id="g44"
           transform="translate(332.6866,104.8703)"><path
             d="m 0,0 c -0.817,2.212 -2.772,3.753 -5.058,3.956 -0.106,0.009 -1.835,0.1 -4.927,0.325 -8.912,0.65 -7.951,-6.086 -17.81,-5.845 -8.657,0.211 -23.166,2.566 -32.865,5.051 -9.368,2.402 -14.579,-0.712 -18.303,-4.436 -5.749,-5.75 -13.681,-11.199 -20.014,-14.568 -10.614,-5.645 -15.697,-3.232 -17.634,1.042 -2.726,6.015 -5.21,12.83 -16.033,17 -7.632,2.942 -17.224,3.645 -24.608,3.449 -15.07,-0.402 -17.875,-2.887 -22.198,-2.986 -3.654,-0.084 -8.663,1.663 -10.587,1.382 -4.803,-0.702 -8.41,-5.61 -24.288,-8.019 -16.914,-2.566 -28.113,2.557 -38.397,2.806 -5.019,0.122 -12.825,-1.363 -17.554,-2.725 -4.002,-1.155 -7.529,-1.26 -11.623,-0.081 -15.311,4.411 -21.884,9.273 -26.853,9.273 -5.607,0 -7.438,-3.649 -8.003,-6.072 -1.078,-4.623 -2.615,-13.476 0.492,-21.843 0.746,-2.008 1.36,-3.383 3.278,-4.168 4.55,-1.862 13.293,-4.338 28.441,-6.458 6.893,-0.803 21.001,-1.604 30.46,0.561 8.817,2.018 23.15,5.281 36.44,4.862 24.481,-0.773 38.028,-10.876 54.201,-10.107 10.136,0.483 25.509,2.759 36.972,2.599 18.591,-0.261 52.396,-3.632 59.799,-3.448 35.058,1.619 56.495,9.136 62.925,11.66 1.681,0.661 2.956,2.056 3.526,3.815 C 1.116,-18.854 2.859,-7.732 0,0"
             style="fill:#843a1f;fill-opacity:1;fill-rule:nonzero;stroke:none"
             id="path46" /></g></g></g></g></svg>
