<svg id="visual" viewBox="0 0 960 540" width="960" height="540" xmlns="http://www.w3.org/2000/svg" xmlns:xlink="http://www.w3.org/1999/xlink" version="1.1"><rect x="0" y="0" width="960" height="540" fill="#1d5030"></rect><path d="M0 411L22.8 405C45.7 399 91.3 387 137 390.5C182.7 394 228.3 413 274 421.7C319.7 430.3 365.3 428.7 411.2 418C457 407.3 503 387.7 548.8 380.3C594.7 373 640.3 378 686 388.3C731.7 398.7 777.3 414.3 823 423.3C868.7 432.3 914.3 434.7 937.2 435.8L960 437L960 541L937.2 541C914.3 541 868.7 541 823 541C777.3 541 731.7 541 686 541C640.3 541 594.7 541 548.8 541C503 541 457 541 411.2 541C365.3 541 319.7 541 274 541C228.3 541 182.7 541 137 541C91.3 541 45.7 541 22.8 541L0 541Z" fill="#ffffff" stroke-linecap="round" stroke-linejoin="miter"></path></svg>