<?xml version="1.0" encoding="UTF-8" standalone="no"?>
<svg
   xmlns:dc="http://purl.org/dc/elements/1.1/"
   xmlns:cc="http://creativecommons.org/ns#"
   xmlns:rdf="http://www.w3.org/1999/02/22-rdf-syntax-ns#"
   xmlns:svg="http://www.w3.org/2000/svg"
   xmlns="http://www.w3.org/2000/svg"
   xmlns:sodipodi="http://sodipodi.sourceforge.net/DTD/sodipodi-0.dtd"
   xmlns:inkscape="http://www.inkscape.org/namespaces/inkscape"
   version="1.1"
   id="svg2"
   xml:space="preserve"
   width="517.96399"
   height="64.744934"
   viewBox="0 0 517.96399 64.744934"
   sodipodi:docname="logotipotipografico_blanco.ai"><metadata
     id="metadata8"><rdf:RDF><cc:Work
         rdf:about=""><dc:format>image/svg+xml</dc:format><dc:type
           rdf:resource="http://purl.org/dc/dcmitype/StillImage" /></cc:Work></rdf:RDF></metadata><defs
     id="defs6"><clipPath
       clipPathUnits="userSpaceOnUse"
       id="clipPath18"><path
         d="M 0,48.559 H 388.473 V 0 H 0 Z"
         id="path16" /></clipPath></defs><sodipodi:namedview
     pagecolor="#ffffff"
     bordercolor="#666666"
     borderopacity="1"
     objecttolerance="10"
     gridtolerance="10"
     guidetolerance="10"
     inkscape:pageopacity="0"
     inkscape:pageshadow="2"
     inkscape:window-width="640"
     inkscape:window-height="480"
     id="namedview4" /><g
     id="g10"
     inkscape:groupmode="layer"
     inkscape:label="logotipotipografico_blanco"
     transform="matrix(1.3333333,0,0,-1.3333333,0,64.744933)"><g
       id="g12"><g
         id="g14"
         clip-path="url(#clipPath18)"><g
           id="g20"
           transform="translate(91.5377,25.705)"><path
             d="m 0,0 c -0.079,3.274 -3.031,5.595 -6.282,5.595 -7.189,0 -8.322,-6.044 -8.322,-11.405 0,-4.996 2.193,-10.133 7.642,-10.133 4.464,0 6.734,2.526 7.343,6.629 h 12.482 c -1.136,-10.36 -9.305,-16.322 -19.751,-16.322 -11.804,0 -20.586,7.973 -20.586,19.826 0,12.295 7.95,21.091 20.586,21.091 9.765,0 18.467,-5.071 19.367,-15.281 z"
             style="fill:#ffffff;fill-opacity:1;fill-rule:nonzero;stroke:none"
             id="path22" /></g><g
           id="g24"
           transform="translate(198.0582,39.8656)"><path
             d="m 0,0 h 12.478 v -5.457 h 0.158 c 2.342,4.058 6.259,6.577 11.828,6.577 13.091,0 14.652,-9.386 14.652,-14.978 V -38.68 H 26.255 v 18.71 c 0,5.29 0.239,10.661 -6.435,10.661 -4.489,0 -6.961,-3.642 -6.961,-9.286 V -38.68 H 0 Z"
             style="fill:#ffffff;fill-opacity:1;fill-rule:nonzero;stroke:none"
             id="path26" /></g><g
           id="g28"
           transform="translate(258.1012,7.8954)"><path
             d="M 0,0 C 6.129,0 8.175,3.428 7.875,11.402 6.059,10.278 2.73,10.06 -0.074,9.315 -2.947,8.648 -5.37,7.45 -5.37,4.393 -5.37,1.269 -2.873,0 0,0 m -16.644,20.046 c 0.22,5.067 2.647,8.348 6.124,10.354 3.484,1.942 8.023,2.69 12.49,2.69 9.303,0 18.313,-2.015 18.313,-12.965 V 3.205 c 0,-3.28 0,-6.859 1.516,-9.915 H 8.854 c -0.453,1.195 -0.599,2.387 -0.755,3.651 -3.325,-3.424 -8.246,-4.767 -12.944,-4.767 -7.488,0 -13.389,3.723 -13.389,11.704 0,12.589 13.921,11.626 22.85,13.413 2.194,0.447 3.405,1.188 3.405,3.577 0,2.91 -3.551,4.019 -6.204,4.019 -3.555,0 -5.821,-1.562 -6.428,-4.841 z"
             style="fill:#ffffff;fill-opacity:1;fill-rule:nonzero;stroke:none"
             id="path30" /></g><path
           d="m 282.586,48.49 h 12.858 V 1.185 h -12.858 z"
           style="fill:#ffffff;fill-opacity:1;fill-rule:nonzero;stroke:none"
           id="path32" /><g
           id="g34"
           transform="translate(311.0026,20.9384)"><path
             d="m 0,0 c 0,-5.293 1.965,-11.177 7.868,-11.177 6.282,0 7.644,5.884 7.644,10.803 0,5.588 -2.045,10.736 -7.644,10.736 C 1.965,10.362 0,4.917 0,0 M 27.924,-19.753 H 15.658 v 4.476 h -0.146 c -2.495,-3.654 -6.279,-5.592 -10.822,-5.592 -12.332,0 -17.554,10.433 -17.554,21.317 0,10.06 5.444,19.599 16.569,19.599 4.842,0 8.554,-1.789 11.199,-5.292 h 0.159 v 12.797 h 12.861 z"
             style="fill:#ffffff;fill-opacity:1;fill-rule:nonzero;stroke:none"
             id="path36" /></g><g
           id="g38"
           transform="translate(347.6295,35.6937)"><path
             d="M 0,0 H -6.018 V 12.796 H 6.013 Z"
             style="fill:#ffffff;fill-opacity:1;fill-rule:nonzero;stroke:none"
             id="path40" /></g><g
           id="g42"
           transform="translate(126.5788,12.1473)"><path
             d="M 0,0 H -5.782 V 25.375 H 0 c 7.474,0 10.825,-4.92 10.825,-12.453 C 10.825,4.633 8.122,0 0,0 M 1.163,36.343 H -19.488 V -10.962 H 1.163 c 14.596,0 23.541,8.349 23.541,23.845 0,14.649 -8.814,23.46 -23.541,23.46"
             style="fill:#ffffff;fill-opacity:1;fill-rule:nonzero;stroke:none"
             id="path44" /></g><g
           id="g46"
           transform="translate(39.5631,1.1854)"><path
             d="m 0,0 5.144,18.961 c 0.585,2.215 1.16,4.808 1.381,6.116 H 6.672 C 6.799,24.071 7.194,21.234 7.669,18.814 L 11.321,0 h 14.162 l -9.92,47.373 H 0.549 L -5.464,23.578 c -0.508,-1.844 -1.129,-4.827 -1.502,-6.386 h -0.143 0.143 -0.143 c -0.38,1.559 -0.998,4.542 -1.501,6.386 l -6.018,23.795 H -29.642 L -39.563,0 h 14.167 l 3.652,18.814 c 0.474,2.42 0.864,5.257 0.996,6.263 h 0.142 c 0.224,-1.308 0.801,-3.901 1.381,-6.116 L -14.076,0 Z"
             style="fill:#ffffff;fill-opacity:1;fill-rule:nonzero;stroke:none"
             id="path48" /></g><g
           id="g50"
           transform="translate(174.6329,9.6864)"><path
             d="m 0,0 c -5.566,0 -7.796,4.61 -7.796,10.809 0,6.192 2.23,10.805 7.796,10.805 5.56,0 7.792,-4.613 7.792,-10.805 C 7.792,4.61 5.56,0 0,0 m 0,31.299 c -12.681,0 -20.665,-8.87 -20.665,-20.49 0,-11.627 7.984,-20.496 20.665,-20.496 12.68,0 20.658,8.869 20.658,20.496 0,11.62 -7.978,20.49 -20.658,20.49"
             style="fill:#ffffff;fill-opacity:1;fill-rule:nonzero;stroke:none"
             id="path52" /></g><g
           id="g54"
           transform="translate(362.8395,13.9344)"><path
             d="m 0,0 c 0,-1.937 0.821,-3.353 2.093,-4.321 1.191,-0.898 2.74,-1.345 4.532,-1.345 2.468,0 5.977,1.043 5.977,4.101 0,2.983 -3.959,3.579 -6.2,4.1 -7.989,2.012 -18.333,2.235 -18.333,12.669 0,9.317 10.419,11.849 18.036,11.849 8.515,0 17.4,-2.458 17.849,-12.518 H 12.063 c 0,1.638 -0.6,2.681 -1.642,3.352 -1.05,0.667 -2.299,0.969 -3.866,0.969 -2.09,0 -5.452,-0.222 -5.452,-2.908 0,-3.654 8.848,-4.323 14.673,-5.587 7.845,-1.567 9.858,-7.232 9.858,-10.437 0,-10.356 -10.193,-13.789 -18.93,-13.789 -9.187,0 -18.6,3.056 -18.972,13.865 z"
             style="fill:#ffffff;fill-opacity:1;fill-rule:nonzero;stroke:none"
             id="path56" /></g><g
           id="g58"
           transform="translate(384.8219,45.6547)"><path
             d="m 0,0 h 0.574 c 0.48,0 0.928,0.021 0.928,0.584 0,0.471 -0.403,0.544 -0.78,0.544 L 0,1.128 Z M -0.554,1.576 H 0.817 C 1.65,1.576 2.05,1.239 2.05,0.559 2.05,-0.079 1.644,-0.348 1.123,-0.405 L 2.129,-1.971 H 1.54 L 0.58,-0.448 H 0 v -1.523 h -0.554 z m 1.181,-4.364 c 1.397,0 2.477,1.118 2.477,2.603 0,1.451 -1.08,2.573 -2.477,2.573 -1.413,0 -2.493,-1.122 -2.493,-2.573 0,-1.485 1.08,-2.603 2.493,-2.603 m 0,5.623 c 1.644,0 3.024,-1.314 3.024,-3.02 0,-1.743 -1.38,-3.051 -3.024,-3.051 -1.655,0 -3.046,1.308 -3.046,3.051 0,1.706 1.391,3.02 3.046,3.02"
             style="fill:#ffffff;fill-opacity:1;fill-rule:nonzero;stroke:none"
             id="path60" /></g></g></g></g></svg>
